<svg xmlns="http://www.w3.org/2000/svg" width="192" height="192" viewBox="0 0 192 192">
  <defs>
    <linearGradient id="grad1" x1="0%" y1="0%" x2="100%" y2="100%">
      <stop offset="0%" style="stop-color:#3b82f6;stop-opacity:1" />
      <stop offset="100%" style="stop-color:#8b5cf6;stop-opacity:1" />
    </linearGradient>
  </defs>
  <rect width="192" height="192" rx="48" fill="url(#grad1)" />
  <g transform="translate(48, 48)" fill="white">
    <path d="M76.8,19.2c0-8.837-7.163-16-16-16H16c-8.837,0-16,7.163-16,16v19.2c0,8.837,7.163,16,16,16h44.8
      c8.837,0,16-7.163,16-16V19.2z M67.2,19.2v19.2c0,3.535-2.865,6.4-6.4,6.4H16c-3.535,0-6.4-2.865-6.4-6.4V19.2
      c0-3.535,2.865-6.4,6.4-6.4h44.8C64.335,12.8,67.2,15.665,67.2,19.2z" />
    <path d="M76.8,57.6c0-8.837-7.163-16-16-16H16c-8.837,0-16,7.163-16,16v19.2c0,8.837,7.163,16,16,16h44.8
      c8.837,0,16-7.163,16-16V57.6z M67.2,57.6v19.2c0,3.535-2.865,6.4-6.4,6.4H16c-3.535,0-6.4-2.865-6.4-6.4V57.6
      c0-3.535,2.865-6.4,6.4-6.4h44.8C64.335,51.2,67.2,54.065,67.2,57.6z" />
    <circle cx="24" cy="28.8" r="6.4" />
    <circle cx="24" cy="67.2" r="6.4" />
    <path d="M28.5,28.8h25.6c1.273,0,2.304-1.031,2.304-2.304s-1.031-2.304-2.304-2.304H28.5c-1.273,0-2.304,1.031-2.304,2.304
      S27.227,28.8,28.5,28.8z" />
    <path d="M54.1,33.408H28.5c-1.273,0-2.304,1.031-2.304,2.304S27.227,38.016,28.5,38.016H54.1
      c1.273,0,2.304-1.031,2.304-2.304S55.373,33.408,54.1,33.408z" />
    <path d="M28.5,67.2h25.6c1.273,0,2.304-1.031,2.304-2.304s-1.031-2.304-2.304-2.304H28.5c-1.273,0-2.304,1.031-2.304,2.304
      S27.227,67.2,28.5,67.2z" />
    <path d="M54.1,71.808H28.5c-1.273,0-2.304,1.031-2.304,2.304S27.227,76.416,28.5,76.416H54.1
      c1.273,0,2.304-1.031,2.304-2.304S55.373,71.808,54.1,71.808z" />
  </g>
</svg> 